<?xml version="1.0" encoding="utf-8"?>
<!-- Generator: Adobe Illustrator 24.0.0, SVG Export Plug-In . SVG Version: 6.00 Build 0)  -->
<svg version="1.1" id="Layer_1" xmlns="http://www.w3.org/2000/svg" xmlns:xlink="http://www.w3.org/1999/xlink" x="0px" y="0px"
	 viewBox="0 0 512 512" style="enable-background:new 0 0 512 512;" xml:space="preserve">
<style type="text/css">
	.st0{stroke:#000000;stroke-width:0.25;stroke-miterlimit:10;}
</style>
<path class="st0" d="M169.7,54L169.7,54c-15.8,0-28.7,12.8-28.6,28.7c0,15.8,12.8,28.6,28.7,28.6c15.8,0,28.6-12.8,28.6-28.6
	C198.4,66.8,185.5,54,169.7,54z"/>
<path class="st0" d="M89.9,215.4L89.9,215.4c-17.9,0-32.4,14.5-32.4,32.4s14.5,32.4,32.4,32.3c17.9,0,32.3-14.5,32.3-32.4
	C122.2,229.9,107.7,215.4,89.9,215.4z"/>
<path class="st0" d="M89.9,301.4L89.9,301.4c-18.2,0-32.9,14.8-32.9,32.9c0,18.2,14.8,32.9,32.9,32.9c18.2,0,32.9-14.8,32.9-32.9
	C122.8,316.2,108,301.4,89.9,301.4z"/>
<path class="st0" d="M428,27.5h-344c-31.2,0-56.5,25.3-56.4,56.5v344c0,0,0,0,0,0c0,31.2,25.3,56.5,56.5,56.4h344
	c31.2,0,56.4-25.3,56.4-56.5l0.1-344v0C484.5,52.7,459.2,27.5,428,27.5z M464.5,428.1c0,20.1-16.4,36.5-36.5,36.4H84c0,0,0,0,0,0
	c-20.1,0-36.5-16.4-36.4-36.5v-344c0-20.1,16.4-36.5,36.5-36.4h344c20.1,0,36.4,16.4,36.4,36.5L464.5,428.1
	C464.5,428,464.5,428,464.5,428.1z"/>
<path class="st0" d="M89.9,388.6L89.9,388.6c-19.4,0-35.2,15.8-35.1,35.2s15.8,35.1,35.2,35.1c19.4,0,35.1-15.7,35.1-35.1
	C125,404.4,109.3,388.6,89.9,388.6z"/>
<path class="st0" d="M89.9,129.4L89.9,129.4c-17.9,0-32.3,14.5-32.3,32.3s14.5,32.3,32.3,32.3c17.8,0,32.3-14.5,32.3-32.3
	C122.2,143.9,107.7,129.4,89.9,129.4z"/>
<path class="st0" d="M89.9,60L89.9,60c-16.2,0-29.4,13.2-29.4,29.4s13.2,29.4,29.4,29.3c16.2,0,29.3-13.2,29.3-29.4
	C119.2,73.1,106.1,60,89.9,60z"/>
<path class="st0" d="M297.8,58.3L297.8,58.3c-17.2,0-31.1,13.9-31.1,31.1c0,17.2,13.9,31,31.1,31c17.1,0,31-13.9,31-31.1
	C328.8,72.2,314.9,58.3,297.8,58.3z"/>
<path class="st0" d="M407.8,66.4L407.8,66.4c-14.9,0-27,12.1-27,27s12.1,27,27,27c14.9,0,27-12.1,27-27
	C434.8,78.5,422.8,66.4,407.8,66.4z"/>
<path class="st0" d="M407.8,125.9L407.8,125.9c-19.8,0-35.9,16.1-35.8,35.9s16.1,35.8,35.9,35.8c19.8,0,35.8-16.1,35.8-35.8
	C443.7,141.9,427.6,125.9,407.8,125.9z"/>
<path class="st0" d="M407.8,207.1L407.8,207.1c-19.8,0-35.9,16.1-35.8,35.9s16.1,35.8,35.9,35.8c19.8,0,35.8-16.1,35.8-35.8
	C443.7,223.2,427.6,207.1,407.8,207.1z"/>
<path class="st0" d="M416.7,288.3L416.7,288.3c-19.8,0-35.9,16.1-35.8,35.9s16.1,35.8,35.9,35.8c19.8,0,35.8-16.1,35.8-35.8
	C452.5,304.4,436.5,288.3,416.7,288.3z"/>
<path class="st0" d="M421,387.9L421,387.9c-19.8,0-35.9,16.1-35.8,35.9s16.1,35.8,35.9,35.8c19.8,0,35.8-16.1,35.8-35.8
	C456.8,404,440.8,387.9,421,387.9z"/>
<path class="st0" d="M191.2,387.9L191.2,387.9c-19.8,0-35.9,16.1-35.8,35.9c0,19.8,16.1,35.8,35.9,35.8c19.8,0,35.8-16.1,35.8-35.8
	C227,404,210.9,387.9,191.2,387.9z"/>
<path class="st0" d="M295.1,387.9L295.1,387.9c-19.8,0-35.9,16.1-35.8,35.9s16.1,35.8,35.9,35.8c19.8,0,35.8-16.1,35.8-35.8
	C330.9,404,314.9,387.9,295.1,387.9z"/>
<path class="st0" d="M175,298.5L175,298.5c-19.8,0-35.9,16.1-35.8,35.9c0,19.8,16.1,35.8,35.9,35.8c19.8,0,35.8-16.1,35.8-35.8
	C210.8,314.6,194.8,298.5,175,298.5z"/>
<path class="st0" d="M302.5,135.4L302.5,135.4c-19.8,0-35.9,16.1-35.8,35.9s16.1,35.8,35.9,35.8c19.8,0,35.8-16.1,35.8-35.8
	C338.4,151.5,322.3,135.4,302.5,135.4z"/>
<path class="st0" d="M169.7,125.9L169.7,125.9c-19.8,0-35.9,16.1-35.8,35.9s16.1,35.8,35.9,35.8c19.8,0,35.8-16.1,35.8-35.8
	C205.6,141.9,189.5,125.9,169.7,125.9z"/>
<path class="st0" d="M175,212.2L175,212.2c-19.8,0-35.9,16.1-35.8,35.9c0,19.8,16.1,35.8,35.9,35.8c19.8,0,35.8-16.1,35.8-35.8
	C210.8,228.3,194.8,212.2,175,212.2z"/>
<path class="st0" d="M302.5,220.2L302.5,220.2c-19.8,0-35.9,16.1-35.8,35.9s16.1,35.8,35.9,35.8c19.8,0,35.8-16.1,35.8-35.8
	C338.4,236.2,322.3,220.2,302.5,220.2z"/>
<path class="st0" d="M295.1,304.9L295.1,304.9c-19.8,0-35.9,16.1-35.8,35.9c0,19.8,16.1,35.8,35.9,35.8c19.8,0,35.8-16.1,35.8-35.8
	C330.9,320.9,314.9,304.9,295.1,304.9z"/>
</svg>
