<?xml version="1.0" encoding="utf-8"?>
<!-- Generator: Adobe Illustrator 24.0.0, SVG Export Plug-In . SVG Version: 6.00 Build 0)  -->
<svg version="1.1" id="Layer_1" xmlns="http://www.w3.org/2000/svg" xmlns:xlink="http://www.w3.org/1999/xlink" x="0px" y="0px"
	 viewBox="0 0 512 512" style="enable-background:new 0 0 512 512;" xml:space="preserve">
<path d="M175.9,128.5c0,26.2-21.2,47.4-47.3,47.4s-47.4-21.2-47.4-47.3s21.2-47.4,47.3-47.4c0,0,0,0,0,0
	C154.7,81.2,175.9,102.3,175.9,128.5z M382.5,81.2c-26.2,0-47.4,21.2-47.4,47.3c0,26.2,21.2,47.4,47.3,47.4
	c26.2,0,47.4-21.2,47.4-47.3c0,0,0-0.1,0-0.1C429.8,102.4,408.6,81.2,382.5,81.2z M128.5,208.1c-26.2,0-47.4,21.2-47.3,47.4
	s21.2,47.4,47.4,47.3c26.1,0,47.3-21.2,47.3-47.4C175.9,229.3,154.7,208.1,128.5,208.1C128.5,208.1,128.5,208.1,128.5,208.1z
	 M382.4,208.1c-26.2,0-47.4,21.2-47.3,47.4s21.2,47.4,47.4,47.3c26.1,0,47.3-21.2,47.3-47.4C429.8,229.4,408.6,208.2,382.4,208.1
	L382.4,208.1z M128.5,335.1c-26.2,0-47.4,21.2-47.3,47.4c0,26.2,21.2,47.4,47.4,47.3c26.1,0,47.3-21.2,47.3-47.3
	C175.9,356.3,154.7,335.1,128.5,335.1C128.6,335.1,128.5,335.1,128.5,335.1z M382.4,335.1c-26.2,0-47.4,21.2-47.3,47.4
	s21.2,47.4,47.4,47.3c26.1,0,47.3-21.2,47.3-47.3C429.8,356.3,408.7,335.1,382.4,335.1L382.4,335.1z M484.4,428
	c0,31.2-25.2,56.4-56.4,56.5H84c-31.2,0-56.5-25.2-56.5-56.4c0,0,0,0,0,0V84c0-31.2,25.2-56.5,56.4-56.5c0,0,0,0,0,0h344
	c31.2,0,56.5,25.2,56.5,56.4c0,0,0,0,0,0L484.4,428z M464.4,84c0-20.1-16.3-36.5-36.4-36.5H84c-20.1,0-36.5,16.3-36.5,36.4
	c0,0,0,0,0,0v344c0,20.1,16.3,36.5,36.4,36.5c0,0,0,0,0,0h344c20.1,0,36.5-16.3,36.5-36.4c0,0,0,0,0,0L464.4,84z"/>
<path d="M299.4,256c0,26.2-21.2,47.4-47.3,47.4c-26.2,0-47.4-21.2-47.4-47.3c0-26.2,21.2-47.4,47.3-47.4c0,0,0,0,0,0
	C278.1,208.6,299.3,229.8,299.4,256z"/>
</svg>
